<?xml version="1.0" standalone="no"?>
<!DOCTYPE svg PUBLIC "-//W3C//DTD SVG 20010904//EN"
 "http://www.w3.org/TR/2001/REC-SVG-20010904/DTD/svg10.dtd">
<svg version="1.0" xmlns="http://www.w3.org/2000/svg"
 width="200.000000pt" height="158.000000pt" viewBox="0 0 200.000000 158.000000"
 preserveAspectRatio="xMidYMid meet">
<metadata>
Created by potrace 1.16, written by Peter Selinger 2001-2019
</metadata>
<g transform="translate(0.000000,158.000000) scale(0.100000,-0.100000)"
fill="#000000" stroke="none">
<path d="M1043 1321 c-17 -11 -64 -60 -103 -110 -119 -151 -164 -182 -310
-212 -30 -6 -72 -20 -92 -32 -123 -68 -145 -275 -42 -395 34 -40 158 -112 193
-112 11 0 29 25 50 67 69 141 159 264 280 383 64 63 149 138 188 165 77 54 81
61 62 130 -16 57 -46 95 -93 116 -53 24 -93 24 -133 0z"/>
<path d="M1423 1180 c-135 -35 -143 -45 -143 -179 -1 -151 -57 -301 -156 -410
-93 -102 -182 -142 -329 -146 l-90 -2 -12 -54 c-13 -57 -5 -120 20 -160 51
-82 247 -127 437 -100 145 22 249 74 301 151 44 66 46 106 8 192 -40 89 -44
159 -12 229 12 27 67 94 136 168 73 76 126 143 142 176 25 50 26 55 11 83 -35
67 -169 90 -313 52z"/>
</g>
</svg>
